<mxfile host="65bd71144e">
    <diagram id="_OqiHVTX4Yx3bkCtcxEL" name="Page-1">
        <mxGraphModel dx="1109" dy="633" grid="1" gridSize="10" guides="1" tooltips="1" connect="1" arrows="1" fold="1" page="1" pageScale="1" pageWidth="850" pageHeight="1100" math="0" shadow="0">
            <root>
                <mxCell id="0"/>
                <mxCell id="1" parent="0"/>
                <mxCell id="2" value="" style="ellipse;html=1;fillColor=#000000;" vertex="1" parent="1">
                    <mxGeometry x="145" y="59" width="30" height="30" as="geometry"/>
                </mxCell>
                <mxCell id="3" value="" style="endArrow=open;html=1;rounded=0;align=center;verticalAlign=top;endFill=0;labelBackgroundColor=none;endSize=6;strokeWidth=2;entryX=0;entryY=0.5;entryDx=0;entryDy=0;" edge="1" source="2" parent="1" target="5">
                    <mxGeometry relative="1" as="geometry">
                        <mxPoint x="370" y="74" as="targetPoint"/>
                    </mxGeometry>
                </mxCell>
                <mxCell id="5" value="&lt;b&gt;&lt;font style=&quot;font-size: 22px;&quot;&gt;Login to the Online Shoe Store&amp;nbsp;&lt;/font&gt;&lt;/b&gt;" style="rounded=1;arcSize=10;whiteSpace=wrap;html=1;align=center;strokeWidth=2;" vertex="1" parent="1">
                    <mxGeometry x="375" y="44" width="250" height="60" as="geometry"/>
                </mxCell>
                <mxCell id="6" value="&lt;b&gt;&lt;font style=&quot;font-size: 22px;&quot;&gt;Check User Level and Permission&lt;/font&gt;&lt;/b&gt;" style="rounded=1;arcSize=10;whiteSpace=wrap;html=1;align=center;strokeWidth=2;" vertex="1" parent="1">
                    <mxGeometry x="375" y="179" width="250" height="60" as="geometry"/>
                </mxCell>
                <mxCell id="7" value="" style="endArrow=classic;html=1;strokeWidth=2;entryX=0.5;entryY=0;entryDx=0;entryDy=0;exitX=0.5;exitY=1;exitDx=0;exitDy=0;" edge="1" parent="1" source="5" target="6">
                    <mxGeometry width="50" height="50" relative="1" as="geometry">
                        <mxPoint x="265" y="159" as="sourcePoint"/>
                        <mxPoint x="315" y="109" as="targetPoint"/>
                    </mxGeometry>
                </mxCell>
                <mxCell id="8" value="" style="endArrow=none;html=1;strokeWidth=2;" edge="1" parent="1">
                    <mxGeometry width="50" height="50" relative="1" as="geometry">
                        <mxPoint x="80" y="329" as="sourcePoint"/>
                        <mxPoint x="780" y="329" as="targetPoint"/>
                    </mxGeometry>
                </mxCell>
                <mxCell id="9" value="" style="endArrow=classic;html=1;strokeWidth=2;exitX=0.5;exitY=1;exitDx=0;exitDy=0;" edge="1" parent="1" source="6">
                    <mxGeometry width="50" height="50" relative="1" as="geometry">
                        <mxPoint x="320" y="299" as="sourcePoint"/>
                        <mxPoint x="500" y="329" as="targetPoint"/>
                    </mxGeometry>
                </mxCell>
                <mxCell id="10" value="" style="endArrow=classic;html=1;strokeWidth=2;" edge="1" parent="1">
                    <mxGeometry width="50" height="50" relative="1" as="geometry">
                        <mxPoint x="84" y="330" as="sourcePoint"/>
                        <mxPoint x="84" y="450" as="targetPoint"/>
                    </mxGeometry>
                </mxCell>
                <mxCell id="11" value="" style="endArrow=classic;html=1;strokeWidth=2;" edge="1" parent="1">
                    <mxGeometry width="50" height="50" relative="1" as="geometry">
                        <mxPoint x="255" y="329" as="sourcePoint"/>
                        <mxPoint x="255" y="449" as="targetPoint"/>
                    </mxGeometry>
                </mxCell>
                <mxCell id="12" value="" style="endArrow=classic;html=1;strokeWidth=2;" edge="1" parent="1">
                    <mxGeometry width="50" height="50" relative="1" as="geometry">
                        <mxPoint x="590" y="329" as="sourcePoint"/>
                        <mxPoint x="590" y="449" as="targetPoint"/>
                    </mxGeometry>
                </mxCell>
                <mxCell id="13" value="" style="endArrow=classic;html=1;strokeWidth=2;" edge="1" parent="1">
                    <mxGeometry width="50" height="50" relative="1" as="geometry">
                        <mxPoint x="424" y="329" as="sourcePoint"/>
                        <mxPoint x="424" y="449" as="targetPoint"/>
                    </mxGeometry>
                </mxCell>
                <mxCell id="14" value="" style="endArrow=classic;html=1;strokeWidth=2;" edge="1" parent="1">
                    <mxGeometry width="50" height="50" relative="1" as="geometry">
                        <mxPoint x="782" y="329" as="sourcePoint"/>
                        <mxPoint x="782" y="449" as="targetPoint"/>
                    </mxGeometry>
                </mxCell>
                <mxCell id="15" value="&lt;b&gt;&lt;font style=&quot;font-size: 17px;&quot;&gt;Check Permission&lt;/font&gt;&lt;/b&gt;" style="shape=rhombus;perimeter=rhombusPerimeter;whiteSpace=wrap;html=1;align=center;strokeWidth=2;fillColor=#FFFFFF;" vertex="1" parent="1">
                    <mxGeometry x="23" y="450" width="120" height="119" as="geometry"/>
                </mxCell>
                <mxCell id="16" value="&lt;b&gt;&lt;font style=&quot;font-size: 17px;&quot;&gt;Check Permission&lt;/font&gt;&lt;/b&gt;" style="shape=rhombus;perimeter=rhombusPerimeter;whiteSpace=wrap;html=1;align=center;strokeWidth=2;fillColor=#FFFFFF;" vertex="1" parent="1">
                    <mxGeometry x="195" y="450" width="120" height="119" as="geometry"/>
                </mxCell>
                <mxCell id="17" value="&lt;font size=&quot;1&quot; style=&quot;&quot;&gt;&lt;b style=&quot;font-size: 17px;&quot;&gt;Check Permission&lt;/b&gt;&lt;/font&gt;" style="shape=rhombus;perimeter=rhombusPerimeter;whiteSpace=wrap;html=1;align=center;strokeWidth=2;fillColor=#FFFFFF;" vertex="1" parent="1">
                    <mxGeometry x="530" y="449" width="120" height="119" as="geometry"/>
                </mxCell>
                <mxCell id="18" value="&lt;b&gt;&lt;font style=&quot;font-size: 17px;&quot;&gt;Check Permission&lt;/font&gt;&lt;/b&gt;" style="shape=rhombus;perimeter=rhombusPerimeter;whiteSpace=wrap;html=1;align=center;strokeWidth=2;fillColor=#FFFFFF;" vertex="1" parent="1">
                    <mxGeometry x="365" y="450" width="120" height="119" as="geometry"/>
                </mxCell>
                <mxCell id="19" value="&lt;b&gt;&lt;font style=&quot;font-size: 17px;&quot;&gt;Check Permission&lt;/font&gt;&lt;/b&gt;" style="shape=rhombus;perimeter=rhombusPerimeter;whiteSpace=wrap;html=1;align=center;strokeWidth=2;fillColor=#FFFFFF;" vertex="1" parent="1">
                    <mxGeometry x="722" y="450" width="112" height="119" as="geometry"/>
                </mxCell>
                <mxCell id="20" value="&lt;b&gt;Manage Shoes&lt;/b&gt;" style="rounded=1;arcSize=10;whiteSpace=wrap;html=1;align=center;strokeWidth=3;fontSize=17;fillColor=#FFFFFF;" vertex="1" parent="1">
                    <mxGeometry x="19" y="623" width="145" height="40" as="geometry"/>
                </mxCell>
                <mxCell id="21" value="&lt;b&gt;Manage Shopping Store&lt;/b&gt;" style="rounded=1;arcSize=10;whiteSpace=wrap;html=1;align=center;strokeWidth=3;fontSize=17;fillColor=#FFFFFF;" vertex="1" parent="1">
                    <mxGeometry x="187" y="623" width="145" height="40" as="geometry"/>
                </mxCell>
                <mxCell id="22" value="&lt;b&gt;Manage New Products&lt;/b&gt;" style="rounded=1;arcSize=10;whiteSpace=wrap;html=1;align=center;strokeWidth=3;fontSize=17;fillColor=#FFFFFF;" vertex="1" parent="1">
                    <mxGeometry x="514" y="622" width="145" height="40" as="geometry"/>
                </mxCell>
                <mxCell id="23" value="&lt;b&gt;Manage Order&lt;/b&gt;" style="rounded=1;arcSize=10;whiteSpace=wrap;html=1;align=center;strokeWidth=3;fontSize=17;fillColor=#FFFFFF;" vertex="1" parent="1">
                    <mxGeometry x="353" y="623" width="145" height="40" as="geometry"/>
                </mxCell>
                <mxCell id="24" value="&lt;b&gt;Manage Shipment&lt;/b&gt;" style="rounded=1;arcSize=10;whiteSpace=wrap;html=1;align=center;strokeWidth=3;fontSize=17;fillColor=#FFFFFF;" vertex="1" parent="1">
                    <mxGeometry x="696" y="623" width="145" height="40" as="geometry"/>
                </mxCell>
                <mxCell id="26" value="" style="endArrow=none;html=1;strokeWidth=2;" edge="1" parent="1">
                    <mxGeometry width="50" height="50" relative="1" as="geometry">
                        <mxPoint x="80" y="785" as="sourcePoint"/>
                        <mxPoint x="780" y="785" as="targetPoint"/>
                    </mxGeometry>
                </mxCell>
                <mxCell id="29" value="" style="endArrow=classic;html=1;strokeWidth=2;" edge="1" parent="1">
                    <mxGeometry width="50" height="50" relative="1" as="geometry">
                        <mxPoint x="84" y="330" as="sourcePoint"/>
                        <mxPoint x="84" y="450" as="targetPoint"/>
                    </mxGeometry>
                </mxCell>
                <mxCell id="30" value="" style="endArrow=classic;html=1;strokeWidth=2;" edge="1" parent="1">
                    <mxGeometry width="50" height="50" relative="1" as="geometry">
                        <mxPoint x="255" y="329" as="sourcePoint"/>
                        <mxPoint x="255" y="449" as="targetPoint"/>
                    </mxGeometry>
                </mxCell>
                <mxCell id="31" value="" style="endArrow=classic;html=1;strokeWidth=2;" edge="1" parent="1">
                    <mxGeometry width="50" height="50" relative="1" as="geometry">
                        <mxPoint x="424" y="329" as="sourcePoint"/>
                        <mxPoint x="424" y="449" as="targetPoint"/>
                    </mxGeometry>
                </mxCell>
                <mxCell id="32" value="" style="endArrow=classic;html=1;strokeWidth=2;" edge="1" parent="1">
                    <mxGeometry width="50" height="50" relative="1" as="geometry">
                        <mxPoint x="590" y="329" as="sourcePoint"/>
                        <mxPoint x="590" y="449" as="targetPoint"/>
                    </mxGeometry>
                </mxCell>
                <mxCell id="33" value="" style="endArrow=classic;html=1;strokeWidth=2;" edge="1" parent="1">
                    <mxGeometry width="50" height="50" relative="1" as="geometry">
                        <mxPoint x="778" y="663" as="sourcePoint"/>
                        <mxPoint x="778" y="783" as="targetPoint"/>
                    </mxGeometry>
                </mxCell>
                <mxCell id="34" value="" style="endArrow=classic;html=1;strokeWidth=2;" edge="1" parent="1">
                    <mxGeometry width="50" height="50" relative="1" as="geometry">
                        <mxPoint x="80" y="664" as="sourcePoint"/>
                        <mxPoint x="80" y="784" as="targetPoint"/>
                    </mxGeometry>
                </mxCell>
                <mxCell id="35" value="" style="endArrow=classic;html=1;strokeWidth=2;" edge="1" parent="1">
                    <mxGeometry width="50" height="50" relative="1" as="geometry">
                        <mxPoint x="251" y="663" as="sourcePoint"/>
                        <mxPoint x="251" y="783" as="targetPoint"/>
                    </mxGeometry>
                </mxCell>
                <mxCell id="36" value="" style="endArrow=classic;html=1;strokeWidth=2;" edge="1" parent="1">
                    <mxGeometry width="50" height="50" relative="1" as="geometry">
                        <mxPoint x="420" y="663" as="sourcePoint"/>
                        <mxPoint x="420" y="783" as="targetPoint"/>
                    </mxGeometry>
                </mxCell>
                <mxCell id="37" value="" style="endArrow=classic;html=1;strokeWidth=2;" edge="1" parent="1">
                    <mxGeometry width="50" height="50" relative="1" as="geometry">
                        <mxPoint x="586" y="663" as="sourcePoint"/>
                        <mxPoint x="586" y="783" as="targetPoint"/>
                    </mxGeometry>
                </mxCell>
                <mxCell id="38" value="" style="ellipse;html=1;shape=endState;fillColor=#000000;strokeColor=#ff0000;strokeWidth=3;fontSize=17;" vertex="1" parent="1">
                    <mxGeometry x="722" y="905" width="55" height="55" as="geometry"/>
                </mxCell>
                <mxCell id="39" value="" style="endArrow=classic;html=1;strokeWidth=2;" edge="1" parent="1">
                    <mxGeometry width="50" height="50" relative="1" as="geometry">
                        <mxPoint x="422" y="783" as="sourcePoint"/>
                        <mxPoint x="422" y="903" as="targetPoint"/>
                    </mxGeometry>
                </mxCell>
                <mxCell id="40" value="&lt;b&gt;&lt;font style=&quot;font-size: 22px;&quot;&gt;Logout from the System&lt;/font&gt;&lt;/b&gt;" style="rounded=1;arcSize=10;whiteSpace=wrap;html=1;align=center;strokeWidth=3;fontSize=17;fillColor=#FFFFFF;" vertex="1" parent="1">
                    <mxGeometry x="307" y="907" width="250" height="58" as="geometry"/>
                </mxCell>
                <mxCell id="41" value="" style="endArrow=classic;html=1;strokeWidth=2;exitX=1;exitY=0.5;exitDx=0;exitDy=0;entryX=0;entryY=0.5;entryDx=0;entryDy=0;" edge="1" parent="1" source="40" target="38">
                    <mxGeometry width="50" height="50" relative="1" as="geometry">
                        <mxPoint x="600" y="930" as="sourcePoint"/>
                        <mxPoint x="600" y="1050" as="targetPoint"/>
                        <Array as="points"/>
                    </mxGeometry>
                </mxCell>
                <mxCell id="42" value="" style="endArrow=classic;html=1;strokeWidth=2;fontSize=22;entryX=0.419;entryY=0.052;entryDx=0;entryDy=0;entryPerimeter=0;" edge="1" parent="1" source="15" target="20">
                    <mxGeometry width="50" height="50" relative="1" as="geometry">
                        <mxPoint x="80" y="570" as="sourcePoint"/>
                        <mxPoint x="500" y="630" as="targetPoint"/>
                    </mxGeometry>
                </mxCell>
                <mxCell id="43" value="" style="endArrow=classic;html=1;strokeWidth=2;fontSize=22;exitX=0.5;exitY=1;exitDx=0;exitDy=0;entryX=0.464;entryY=-0.004;entryDx=0;entryDy=0;entryPerimeter=0;" edge="1" parent="1" source="16" target="21">
                    <mxGeometry width="50" height="50" relative="1" as="geometry">
                        <mxPoint x="116" y="580" as="sourcePoint"/>
                        <mxPoint x="255" y="630" as="targetPoint"/>
                    </mxGeometry>
                </mxCell>
                <mxCell id="45" value="" style="endArrow=classic;html=1;strokeWidth=2;fontSize=22;entryX=0.419;entryY=0.052;entryDx=0;entryDy=0;entryPerimeter=0;" edge="1" parent="1">
                    <mxGeometry width="50" height="50" relative="1" as="geometry">
                        <mxPoint x="426.6247405872225" y="567.9982844156624" as="sourcePoint"/>
                        <mxPoint x="425.005" y="625.6899999999999" as="targetPoint"/>
                    </mxGeometry>
                </mxCell>
                <mxCell id="46" value="" style="endArrow=classic;html=1;strokeWidth=2;fontSize=22;exitX=0.5;exitY=1;exitDx=0;exitDy=0;entryX=0.464;entryY=-0.004;entryDx=0;entryDy=0;entryPerimeter=0;" edge="1" parent="1">
                    <mxGeometry width="50" height="50" relative="1" as="geometry">
                        <mxPoint x="590.35" y="569.16" as="sourcePoint"/>
                        <mxPoint x="589.6300000000001" y="623" as="targetPoint"/>
                    </mxGeometry>
                </mxCell>
                <mxCell id="47" value="" style="endArrow=classic;html=1;strokeWidth=2;fontSize=22;exitX=0.5;exitY=1;exitDx=0;exitDy=0;entryX=0.464;entryY=-0.004;entryDx=0;entryDy=0;entryPerimeter=0;" edge="1" parent="1">
                    <mxGeometry width="50" height="50" relative="1" as="geometry">
                        <mxPoint x="778.3499999999999" y="568" as="sourcePoint"/>
                        <mxPoint x="777.6300000000001" y="621.8399999999999" as="targetPoint"/>
                    </mxGeometry>
                </mxCell>
            </root>
        </mxGraphModel>
    </diagram>
</mxfile>